<svg class="img-fluid" width="113" height="49" viewBox="0 0 113 49" fill="none" xmlns="http://www.w3.org/2000/svg">
              <path fill-rule="evenodd" clip-rule="evenodd" d="M62.9084 24.8974C61.68 24.9685 60.4357 25.2435 59.0076 25.7596C58.6167 25.901 57.873 26.2552 57.4914 26.482C57.4034 26.5344 57.2632 26.6119 57.1797 26.6545C57.0963 26.6968 57.0282 26.7503 57.0282 26.7729C57.0282 26.7959 57.0081 26.8144 56.9837 26.8144C56.7619 26.8144 55.3949 27.9742 54.6921 28.7582C54.4043 29.0797 53.6911 30.0846 53.4886 30.4545C53.3013 30.7964 52.9978 31.4334 52.8768 31.7378C52.8564 31.7893 52.8144 31.8935 52.7838 31.9694C52.7292 32.1038 52.6128 32.4571 52.4828 32.8813C51.8035 35.0993 51.8713 38.2939 52.645 40.5349C52.8701 41.1873 52.9605 41.406 53.2638 42.0281C53.8624 43.2571 55.1359 44.8571 56.0947 45.5851C56.4965 45.8903 56.8406 46.13 57.1215 46.3003C57.2884 46.4013 57.4354 46.4968 57.4482 46.5125C57.4751 46.545 57.5849 46.6027 58.0886 46.8496C60.8408 48.1984 63.8227 48.4855 67.1551 47.7224C67.5966 47.6213 68.4017 47.3206 69.0219 47.0249C69.5057 46.7945 70.5597 46.132 70.6009 46.0326C70.6093 46.0118 70.6356 45.995 70.6591 45.995C70.6826 45.995 70.74 45.9584 70.7868 45.9133C70.8333 45.8685 71.0307 45.6977 71.225 45.5336C71.9231 44.9456 72.4957 44.2441 72.3565 44.1478C72.3064 44.1131 72.24 44.063 72.209 44.0367C72.1779 44.0101 72.1404 43.9882 72.1252 43.9882C72.1104 43.9882 72.0726 43.9667 72.0418 43.9403C71.9771 43.8852 71.6335 43.6407 71.1911 43.3349C71.0242 43.2193 70.7521 43.0253 70.5869 42.9032C70.4214 42.7814 70.264 42.6817 70.2374 42.6817C70.2105 42.6817 70.1887 42.6638 70.1887 42.6419C70.1887 42.6069 69.7748 42.318 69.6519 42.267C69.6262 42.2564 69.5948 42.234 69.5819 42.2174C69.4747 42.0783 69.1619 41.9352 69.1619 42.0253C69.1619 42.0741 68.8651 42.4196 68.5747 42.7086C67.3558 43.9219 65.4977 44.6087 63.6342 44.5345C62.5892 44.4928 61.3012 44.2164 60.7543 43.9163C60.6863 43.879 60.6096 43.8482 60.5838 43.8482C60.3973 43.8482 59.1779 43.0009 58.7315 42.561C58.2586 42.0948 57.7283 41.4197 57.7283 41.2842C57.7283 41.257 57.7115 41.2349 57.6913 41.2349C57.6709 41.2349 57.5967 41.1246 57.5261 40.9899C57.4555 40.8552 57.3808 40.7132 57.3598 40.6749C57.3388 40.6362 57.2853 40.5209 57.241 40.4181C57.1965 40.3156 57.1304 40.172 57.094 40.0994C57.0579 40.0266 57.0282 39.946 57.0282 39.9197C57.0282 39.8936 56.9999 39.806 56.9655 39.7253C56.2551 38.0554 56.2582 35.1197 56.9725 33.3C56.9974 33.2364 57.0543 33.09 57.0988 32.9746C57.6443 31.5605 58.9863 30.0126 60.2248 29.3695C60.663 29.1421 61.0525 28.9612 61.1041 28.9612C61.1365 28.9612 61.183 28.9433 61.2074 28.9212C61.2317 28.8993 61.367 28.8444 61.5084 28.7994C64.355 27.8907 67.2777 28.5728 68.918 30.529C69.0589 30.6967 69.0759 30.7048 69.1333 30.6295C69.1675 30.5847 69.2089 30.5477 69.2255 30.5477C69.2417 30.5477 69.2943 30.5111 69.3422 30.4663C69.3901 30.4212 69.6348 30.2271 69.8866 30.0345C70.1383 29.8421 70.3827 29.6478 70.4298 29.6027C70.4768 29.5579 70.5362 29.5212 70.5619 29.5212C70.5877 29.5212 70.6087 29.5041 70.6087 29.4834C70.6087 29.4627 70.7487 29.3431 70.9198 29.2174C71.0909 29.0917 71.2852 28.9385 71.3513 28.8769C71.4177 28.8153 71.6033 28.6686 71.7637 28.5507C71.9242 28.4328 72.0552 28.3068 72.0552 28.2704C72.0552 28.045 70.8162 26.8771 70.2352 26.5548C70.1453 26.5052 70.0613 26.4501 70.0478 26.4327C69.944 26.2958 68.4039 25.6157 67.8086 25.4437C67.6672 25.4031 67.4152 25.3295 67.2486 25.2808C66.1277 24.9517 64.481 24.8064 62.9084 24.8974ZM102.506 24.8974C101.137 24.98 99.3878 25.3919 98.2829 25.8917C97.073 26.4389 96.2946 26.9166 95.4128 27.6524C95.2328 27.8025 94.3734 28.6616 94.2194 28.8453C93.8162 29.3263 93.336 29.9992 93.336 30.0835C93.336 30.1078 93.3195 30.1277 93.299 30.1277C93.2789 30.1277 93.2041 30.2381 93.133 30.3727C93.0621 30.5077 92.9577 30.7017 92.9008 30.8045C92.8443 30.9073 92.7082 31.2013 92.5984 31.4578C92.4887 31.7145 92.3786 31.961 92.354 32.0055C92.3296 32.0503 92.3095 32.1178 92.3095 32.1556C92.3095 32.1936 92.2803 32.2936 92.2451 32.3779C91.8853 33.2356 91.6094 35.0021 91.6092 36.4529C91.6089 37.8199 91.7439 38.7478 92.1714 40.3248C92.2624 40.6606 92.4094 41.0607 92.5657 41.3981C92.7485 41.7941 93.1215 42.5352 93.1993 42.6582C93.2481 42.7352 93.3102 42.8402 93.3374 42.8917C93.4578 43.1193 93.9274 43.7998 93.9996 43.8513C94.0201 43.8656 94.0895 43.9496 94.1542 44.0378C94.3703 44.3326 95.1289 45.113 95.4596 45.3807C95.6391 45.526 95.8141 45.6714 95.8479 45.7036C95.8821 45.7358 96.0081 45.829 96.128 45.9108C96.2481 45.9925 96.3531 46.0765 96.3618 46.0972C96.3702 46.118 96.3954 46.135 96.4178 46.135C96.4399 46.135 96.5516 46.198 96.6656 46.2751C96.7798 46.3521 96.8893 46.4151 96.9092 46.4151C96.9293 46.4151 96.9786 46.445 97.0192 46.4817C97.4026 46.8286 99.2333 47.5539 100.313 47.7868C100.493 47.8255 100.794 47.8907 100.983 47.9319C102.186 48.1934 104.641 48.1923 105.845 47.9294C106.811 47.7182 107.821 47.4141 108.206 47.2187C108.254 47.1943 108.44 47.1039 108.62 47.0182C109.096 46.7906 109.768 46.3885 109.802 46.3101C109.811 46.2907 109.838 46.2751 109.861 46.2751C109.921 46.2751 110.557 45.7962 110.557 45.7512C110.557 45.7313 110.579 45.715 110.607 45.715C110.708 45.715 112.003 44.3645 112.003 44.2593C112.003 44.1946 111.576 43.8482 111.496 43.8482C111.473 43.8482 111.441 43.8168 111.427 43.7782C111.412 43.7398 111.376 43.7082 111.346 43.7082C111.317 43.7082 111.214 43.6452 111.117 43.5682C111.019 43.4912 110.927 43.4282 110.912 43.4282C110.896 43.4282 110.844 43.3915 110.795 43.3467C110.747 43.3016 110.599 43.1913 110.466 43.1017C110.112 42.8626 109.608 42.507 109.544 42.4507C109.513 42.4235 109.475 42.4017 109.46 42.4017C109.445 42.4017 109.407 42.3804 109.376 42.3544C108.923 41.9733 108.823 41.9366 108.712 42.1099C108.626 42.2435 107.782 43.1017 107.736 43.1017C107.722 43.1017 107.671 43.1384 107.623 43.1832C107.493 43.3069 107.363 43.4072 107.288 43.4436C107.251 43.4612 107.157 43.5167 107.08 43.5662C105.275 44.728 102.222 44.8495 100.188 43.8406C100.042 43.7678 99.9101 43.7082 99.8963 43.7082C99.798 43.7082 98.9026 43.0782 98.5556 42.7651C98.4904 42.7063 98.3865 42.6145 98.3249 42.5607C97.5177 41.8587 96.6771 40.3265 96.3044 38.878C95.8992 37.3019 95.9664 34.7989 96.4438 33.6847C96.4799 33.6004 96.5096 33.5063 96.5096 33.4755C96.5096 33.1507 97.4846 31.4231 97.9413 30.9386C98.0264 30.8485 98.0962 30.7648 98.0962 30.7524C98.0962 30.7404 98.2048 30.6317 98.3372 30.5108C98.4697 30.3901 98.6326 30.2414 98.699 30.1807C100.52 28.514 103.734 27.9182 106.03 28.8215C106.171 28.8769 106.322 28.9332 106.365 28.9464C106.968 29.1309 108.153 30.016 108.538 30.5699L108.634 30.7087L108.93 30.4786C109.093 30.3517 109.237 30.2367 109.25 30.2227C109.263 30.2087 109.356 30.1353 109.458 30.0591C109.56 29.9832 109.676 29.8889 109.715 29.8494C109.755 29.8099 109.929 29.6741 110.102 29.5473C110.275 29.4201 110.417 29.2995 110.417 29.2787C110.417 29.258 110.448 29.2412 110.487 29.2412C110.525 29.2412 110.557 29.2241 110.557 29.2034C110.557 29.1827 110.688 29.0687 110.848 28.9503C111.12 28.7501 111.282 28.6213 111.579 28.3715L111.697 28.2718L111.569 28.0876C111.499 27.9862 111.368 27.8384 111.279 27.7594C111.19 27.6804 111.117 27.5928 111.117 27.5651C111.117 27.5371 111.098 27.5144 111.075 27.5144C111.052 27.5144 110.921 27.408 110.784 27.2778C110.646 27.1479 110.476 27.0067 110.405 26.9645C110.335 26.9222 110.277 26.8712 110.277 26.8511C110.277 26.8309 110.245 26.8144 110.207 26.8144C110.168 26.8144 110.137 26.7967 110.137 26.7752C110.137 26.7533 110.063 26.6962 109.973 26.6478C109.883 26.5993 109.81 26.5436 109.81 26.5237C109.81 26.5038 109.791 26.4876 109.767 26.4876C109.744 26.4876 109.57 26.3986 109.381 26.2894C109.193 26.1802 108.965 26.0578 108.876 26.0172C108.786 25.9766 108.64 25.9099 108.55 25.8693C106.869 25.1049 104.74 24.7625 102.506 24.8974ZM74.8089 36.4979V47.5819H76.7922H78.7755V42.9382V38.2948H83.6524H88.5293V36.5915V34.8879H83.6524H78.7755V31.9013V28.9144H83.9557H89.1358V27.1644V25.4143H81.9723H74.8089V36.4979Z" fill="#272727" />
              <path fill-rule="evenodd" clip-rule="evenodd" d="M36.4716 0.49934C36.3688 0.576062 36.2324 0.678546 36.1683 0.726708C35.6217 1.1386 35.2224 1.42953 34.8733 1.66978C34.7131 1.77982 34.5818 1.88595 34.5818 1.90527C34.5815 1.92431 34.5597 1.94027 34.5328 1.94027C34.5059 1.94027 34.2256 2.13432 33.9095 2.37177C33.3142 2.81922 32.5576 3.37224 32.1166 3.68249C31.9768 3.78105 31.8388 3.8813 31.8102 3.9051C31.6923 4.00366 30.714 4.72525 30.4903 4.87841C29.9932 5.2189 29.2829 5.7386 29.2327 5.79852C29.2045 5.83241 29.1667 5.86041 29.149 5.86041C29.1314 5.86041 28.9088 6.01777 28.6545 6.21042C28.4006 6.40279 28.1704 6.56043 28.1435 6.56043C28.1166 6.56043 28.0945 6.57919 28.0945 6.60243C28.0945 6.62567 27.9749 6.72396 27.8285 6.82112C27.6823 6.91828 27.3724 7.14117 27.1402 7.31618C26.6133 7.71351 26.585 7.73451 26.4576 7.82048C26.1764 8.00948 25.0824 8.82711 25.069 8.85819C25.0603 8.87779 25.0343 8.89375 25.0108 8.89375C24.9749 8.89375 24.187 9.45685 23.9288 9.66714C23.8834 9.7041 23.7364 9.81135 23.602 9.90571C23.4676 9.99979 23.114 10.2596 22.8158 10.4828C22.5178 10.706 22.2538 10.8964 22.2289 10.9062C22.2039 10.916 21.9228 11.1182 21.6042 11.3559C21.2852 11.5936 20.7199 12.01 20.3478 12.2813C19.9753 12.5526 19.6186 12.8133 19.5542 12.8607C19.4901 12.908 19.2487 13.0844 19.0177 13.2524C18.7867 13.4204 18.5557 13.5926 18.5042 13.6352C18.4529 13.6774 18.3112 13.7757 18.1892 13.8533C18.0674 13.9311 17.9677 14.0123 17.9677 14.0342C17.9677 14.056 17.9461 14.0739 17.9198 14.0739C17.8674 14.0739 16.9739 14.7289 16.9487 14.7857C16.94 14.8048 16.905 14.8207 16.8709 14.8207C16.8367 14.8207 16.8017 14.8367 16.793 14.8563C16.7782 14.8904 16.0983 15.3928 15.5464 15.7772C15.3991 15.88 15.2482 15.9912 15.2113 16.0245C15.1743 16.0575 14.955 16.2216 14.724 16.3885C14.493 16.5557 14.2671 16.7228 14.222 16.7598C14.1766 16.797 14.1296 16.8273 14.1175 16.8273C14.1052 16.8273 14.0582 16.8572 14.0131 16.8939C13.7779 17.0838 12.9278 17.7068 12.7757 17.8006C12.6794 17.8597 12.6007 17.9277 12.6007 17.9512C12.6007 17.9748 12.5797 17.9941 12.5542 17.9941C12.5164 17.9941 11.7568 18.5339 11.4796 18.7577C11.4406 18.7893 11.3096 18.8831 11.1889 18.9663C10.854 19.1967 9.97339 19.85 9.88995 19.9301C9.84935 19.969 9.80202 20.0009 9.78466 20.0009C9.7673 20.0009 9.47497 20.2073 9.13504 20.4596C8.79539 20.7116 8.28829 21.0845 8.00856 21.2878C7.72911 21.4911 7.25645 21.8375 6.95852 22.0576C6.66087 22.2777 6.35426 22.4975 6.27726 22.5465C6.20026 22.5955 6.12045 22.6621 6.09973 22.6949C6.07929 22.7274 6.04289 22.7542 6.01881 22.7542C5.99473 22.7542 5.93789 22.7845 5.89281 22.8212C5.84745 22.8581 5.53747 23.0897 5.2037 23.3361C4.87021 23.5825 4.56024 23.8149 4.51488 23.8524C4.4698 23.8902 4.42164 23.921 4.40791 23.921C4.39419 23.921 4.35779 23.9426 4.32671 23.9689C4.20911 24.0689 3.26127 24.7611 3.24195 24.7611C3.23075 24.7611 3.18455 24.791 3.13919 24.828C2.94682 24.9845 2.06535 25.6344 1.93711 25.7142C1.86011 25.7621 1.76546 25.8299 1.7271 25.8646C1.66158 25.924 0.976394 26.426 0.749586 26.5811C0.693304 26.6195 0.601461 26.6861 0.545459 26.7293C0.489457 26.7724 0.349172 26.8782 0.233528 26.965L0.0235208 27.1224L0.0117604 37.352L0 47.5819H4.55044H9.1006V39.6481C9.1006 32.8346 9.10984 31.7146 9.16668 31.7146C9.20308 31.7146 9.23976 31.6989 9.24844 31.6796C9.25684 31.6602 9.44249 31.5141 9.66062 31.3542C9.87875 31.1946 10.0826 31.0425 10.1137 31.0159C10.1448 30.9896 10.1918 30.9678 10.2187 30.9678C10.2456 30.9678 10.2674 30.9484 10.2674 30.9249C10.2674 30.9014 10.3461 30.8336 10.4424 30.7746C10.5384 30.7152 10.8168 30.5186 11.0607 30.3377C11.3046 30.1569 11.5588 29.974 11.6257 29.9315C11.6929 29.8889 11.7769 29.8259 11.8125 29.7912C11.8481 29.7564 11.9508 29.6772 12.0407 29.615C12.1306 29.5532 12.393 29.3639 12.624 29.1945C12.855 29.0253 13.233 28.7518 13.464 28.5871C13.695 28.4222 13.926 28.248 13.9775 28.2001C14.0288 28.1523 14.1601 28.0604 14.269 27.996C14.3782 27.9316 14.4675 27.8599 14.4675 27.8367C14.4675 27.8135 14.4894 27.7944 14.516 27.7944C14.5429 27.7944 14.5902 27.7729 14.621 27.7465C14.6521 27.7202 14.8769 27.5528 15.1208 27.3744C15.3647 27.196 15.5862 27.0317 15.6133 27.009C15.6402 26.9863 15.7506 26.9096 15.8584 26.8382C15.9662 26.7671 16.0541 26.6903 16.0541 26.6682C16.0541 26.6458 16.0751 26.6276 16.1006 26.6276C16.1384 26.6276 16.8983 26.0878 17.1752 25.864C17.2144 25.8327 17.3508 25.7352 17.4785 25.6479C17.6706 25.5168 17.9091 25.3407 18.2242 25.0976C18.2499 25.0778 18.3754 24.9887 18.503 24.8997C18.631 24.8106 18.757 24.7207 18.7831 24.7C18.9505 24.5681 19.5514 24.1302 19.6516 24.0669C19.718 24.0252 19.844 23.9345 19.9317 23.8656C20.0193 23.7967 20.28 23.6035 20.511 23.4361C20.742 23.2686 20.9565 23.1099 20.9873 23.083C21.0184 23.0561 21.0548 23.0342 21.0685 23.0342C21.0822 23.0342 21.1304 23.0046 21.1755 22.9682C21.5367 22.6775 22.4579 22.0075 22.4963 22.0075C22.5226 22.0075 22.5562 21.9761 22.5708 21.9375C22.5856 21.8991 22.6172 21.8674 22.6413 21.8674C22.6654 21.8674 22.7105 21.8462 22.7413 21.8201C22.9768 21.6219 24.0484 20.8409 24.0848 20.8409C24.11 20.8409 24.1427 20.8093 24.1576 20.7709C24.1724 20.7323 24.204 20.7009 24.2281 20.7009C24.2522 20.7009 24.297 20.6794 24.3281 20.6528C24.3592 20.6264 24.542 20.4901 24.7344 20.3501C24.927 20.2098 25.1452 20.0477 25.2194 19.9897C25.2933 19.9315 25.377 19.8755 25.405 19.8651C25.4333 19.8545 25.4809 19.8228 25.5109 19.7951C25.5411 19.7671 25.8116 19.5655 26.1118 19.3474C27.1724 18.5771 27.8386 18.0896 27.8881 18.0478C27.9156 18.0246 28.0522 17.9246 28.1914 17.8255C28.3306 17.7264 28.4655 17.6284 28.4913 17.6077C28.517 17.5869 28.727 17.4332 28.9581 17.266C29.1891 17.0992 29.415 16.932 29.4601 16.8948C29.5055 16.8578 29.5632 16.8273 29.5886 16.8273C29.6138 16.8273 29.6348 16.8116 29.6348 16.7923C29.6351 16.7732 29.713 16.7049 29.8082 16.6408C29.9515 16.5439 30.2777 16.3065 31.0581 15.731C31.1094 15.6932 31.3717 15.5031 31.6414 15.3085C31.9108 15.1136 32.184 14.9154 32.2482 14.8678C32.3123 14.8202 32.5537 14.6438 32.7847 14.4763C33.0157 14.3086 33.2257 14.154 33.2514 14.1327C33.3408 14.0588 33.7314 13.7701 33.8361 13.7007C33.9674 13.6133 34.7195 13.0639 34.8159 12.9847C34.8551 12.9525 34.9914 12.8551 35.1191 12.768C35.2471 12.6812 35.5204 12.4804 35.727 12.3219C35.9334 12.1634 36.1854 11.9809 36.287 11.9159C36.3884 11.8512 36.522 11.7538 36.5838 11.6995C36.7253 11.5746 36.7121 11.5723 36.9616 11.7647C37.0769 11.8537 37.2469 11.9775 37.339 12.0394C37.4312 12.1015 37.5362 12.1805 37.5726 12.2147C37.6087 12.2491 37.7327 12.3401 37.8484 12.4171C37.9637 12.4941 38.0889 12.5862 38.1264 12.6221C38.1639 12.6576 38.2953 12.7486 38.4182 12.8243C38.5411 12.9001 38.6416 12.9811 38.6416 13.0046C38.6416 13.0281 38.6635 13.0471 38.6904 13.0471C38.717 13.0471 38.7643 13.069 38.7954 13.0959C38.8262 13.1225 39.0196 13.2695 39.2249 13.4221C39.4304 13.575 39.6236 13.7211 39.6547 13.7469C39.6858 13.7729 39.7328 13.7939 39.7597 13.7939C39.7866 13.7939 39.8084 13.8096 39.8084 13.8289C39.8084 13.8482 39.9031 13.9236 40.0184 13.9967C40.1338 14.0695 40.2285 14.1481 40.2285 14.1717C40.2285 14.1949 40.25 14.2139 40.2763 14.2139C40.3284 14.2139 41.2219 14.8689 41.2474 14.9257C41.2558 14.9448 41.283 14.9607 41.3076 14.9607C41.3322 14.9607 41.3776 14.9823 41.4087 15.0086C41.4398 15.0349 41.6646 15.2018 41.9085 15.3793C42.1521 15.5569 42.3772 15.7243 42.408 15.7512C42.4391 15.7784 42.4865 15.8008 42.5131 15.8008C42.5399 15.8008 42.5618 15.8198 42.5618 15.8433C42.5618 15.8668 42.6615 15.9506 42.7835 16.0298C42.9053 16.1088 43.131 16.2703 43.285 16.3891C43.439 16.5075 43.6544 16.6626 43.7636 16.7335L43.9621 16.8626L43.8103 16.9774C43.7269 17.0406 43.544 17.1722 43.404 17.27C43.264 17.368 43.1277 17.4665 43.1008 17.4895C43.0395 17.5416 42.0519 18.262 41.3219 18.7873C41.0186 19.0055 40.4805 19.3994 40.126 19.6624C39.7712 19.9256 39.4601 20.1409 39.4346 20.1409C39.4091 20.1409 39.3884 20.1569 39.3884 20.1767C39.3884 20.1966 39.0807 20.4327 38.7046 20.7018C37.966 21.2304 36.8751 22.0248 36.7961 22.092C36.7692 22.115 36.6365 22.2113 36.5015 22.3062C36.2162 22.5067 35.3431 23.1493 35.2227 23.2473C35.1774 23.284 35.1219 23.3143 35.0992 23.3143C35.0765 23.3143 35.046 23.3459 35.0312 23.3843C35.0166 23.4229 34.9836 23.4543 34.9581 23.4543C34.9329 23.4543 34.696 23.6186 34.4317 23.8194C34.1676 24.0202 33.8465 24.2557 33.7182 24.3425C33.5897 24.4293 33.4637 24.518 33.4382 24.5396C33.4124 24.5609 33.2024 24.7157 32.9714 24.8832C32.7404 25.0509 32.4991 25.227 32.4347 25.2743C32.3705 25.3216 32.1292 25.4978 31.8982 25.6655C31.6671 25.8329 31.4527 25.992 31.4216 26.0189C31.3908 26.0458 31.3435 26.0676 31.3166 26.0676C31.29 26.0676 31.2681 26.0866 31.2681 26.1102C31.2681 26.1334 31.1735 26.2121 31.0581 26.2852C30.9428 26.358 30.8481 26.4336 30.8481 26.4526C30.8481 26.4719 30.8182 26.4876 30.782 26.4876C30.7456 26.4876 30.7087 26.5044 30.7003 26.5246C30.6916 26.545 30.5009 26.6943 30.2763 26.8567L29.8681 27.1521V37.3668V47.5819H34.4182H38.9684V39.6783V31.7748L39.2543 31.5695C39.4114 31.4569 39.8115 31.1649 40.1433 30.9213C40.4749 30.6774 40.7803 30.4567 40.8215 30.4313C40.863 30.4055 40.9335 30.3531 40.9786 30.3145C41.0234 30.2759 41.3367 30.0449 41.6744 29.8012C42.0124 29.5574 42.5049 29.1978 42.7693 29.0024C43.0333 28.8069 43.3153 28.6081 43.3956 28.5605C43.476 28.5132 43.5418 28.4597 43.5418 28.4421C43.5418 28.4244 43.6362 28.3547 43.7518 28.287C43.8672 28.2192 43.9618 28.1436 43.9618 28.1192C43.9618 28.0946 43.9845 28.0744 44.0119 28.0744C44.0397 28.0744 44.185 27.9798 44.3351 27.8644C44.4852 27.7488 44.6308 27.6544 44.6582 27.6544C44.6859 27.6544 44.7086 27.6354 44.7086 27.6121C44.7086 27.5886 44.803 27.5099 44.9183 27.4371C45.034 27.364 45.1283 27.2887 45.1283 27.2694C45.1286 27.2501 45.153 27.2344 45.1829 27.2344C45.2129 27.2344 45.2706 27.2022 45.3112 27.1624C45.3521 27.123 45.5428 26.9765 45.7351 26.8371C45.9278 26.6976 46.1109 26.5615 46.1425 26.5347C46.1742 26.5078 46.3002 26.4187 46.4225 26.3367C46.5449 26.2546 46.9728 25.9452 47.3726 25.6493C47.7728 25.3533 48.3473 24.9324 48.6492 24.7143C48.951 24.4962 49.2669 24.2599 49.3512 24.1893C49.4355 24.1187 49.5203 24.061 49.5402 24.061C49.5598 24.061 49.6653 23.9874 49.7751 23.8975C49.8846 23.8076 49.9972 23.7343 50.0249 23.7343C50.0526 23.7343 50.0753 23.7152 50.0753 23.692C50.0753 23.6685 50.1699 23.5898 50.2853 23.517C50.4006 23.4439 50.4953 23.3686 50.4953 23.3493C50.4953 23.3299 50.5163 23.3143 50.5421 23.3143C50.5678 23.3143 50.6255 23.2818 50.6703 23.2417C50.7952 23.1311 51.7366 22.4468 51.92 22.3337C52.009 22.2785 52.0821 22.2141 52.0821 22.1903C52.0821 22.1668 52.1118 22.1475 52.1482 22.1475C52.1846 22.1475 52.2213 22.1315 52.2299 22.1119C52.2383 22.0926 52.466 21.9198 52.7354 21.7283C53.005 21.5368 53.236 21.3676 53.2489 21.3525C53.2618 21.3371 53.3771 21.2537 53.5054 21.1669C53.6339 21.0798 53.8677 20.9079 54.0251 20.7849C54.1825 20.6617 54.3241 20.5609 54.3401 20.5609C54.3558 20.5609 54.4093 20.524 54.4588 20.4792C54.6072 20.3445 54.668 20.3011 54.754 20.2683C54.7988 20.2512 54.8354 20.2154 54.8354 20.1891C54.8354 20.1625 54.857 20.1409 54.8833 20.1409C54.9357 20.1409 55.8292 19.486 55.8544 19.4291C55.8631 19.4098 55.8891 19.3941 55.9124 19.3941C55.9356 19.3941 55.9916 19.363 56.0367 19.325C56.082 19.2869 56.308 19.12 56.539 18.9539C56.77 18.7879 56.9842 18.63 57.0153 18.6031C57.0464 18.5762 57.0934 18.5541 57.1203 18.5541C57.1472 18.5541 57.1693 18.5384 57.1699 18.5191C57.1704 18.4998 57.2651 18.4211 57.3799 18.3441C57.4947 18.2671 57.5888 18.1884 57.5888 18.1691C57.5891 18.1498 57.6089 18.1341 57.6336 18.1341C57.6694 18.1341 58.3605 17.6345 58.6021 17.4341C58.6329 17.4086 58.6696 17.3873 58.6831 17.3873C58.6968 17.3873 58.7449 17.3568 58.79 17.3195C58.9009 17.2282 59.765 16.5949 59.9691 16.4554C60.0587 16.3941 60.1637 16.3163 60.2024 16.2821C60.2408 16.2482 60.5034 16.0536 60.7856 15.8492C61.0682 15.6451 61.3244 15.4561 61.3555 15.4292C61.3866 15.4026 61.423 15.3807 61.4367 15.3807C61.4501 15.3807 61.4983 15.3511 61.5436 15.3147C61.759 15.1416 62.6217 14.5052 62.7457 14.4276C62.8227 14.3794 62.9174 14.3119 62.9557 14.2772C63.0305 14.2103 63.7927 13.6492 64.3281 13.2672C64.5059 13.1401 64.6741 13.0163 64.7021 12.992C64.7299 12.9673 64.9309 12.8209 65.1493 12.6663C65.3675 12.5118 65.5985 12.3454 65.6626 12.297C65.7267 12.2483 65.9588 12.0749 66.1781 11.9117L66.5771 11.6149L74.2281 11.5807C78.4363 11.562 81.8883 11.5376 81.8995 11.5264C81.9216 11.5043 81.7374 11.3206 81.6931 11.3206C81.678 11.3206 81.6405 11.2993 81.6094 11.2733C81.5786 11.2475 81.3535 11.0804 81.1099 10.9017C80.866 10.7233 80.6411 10.5556 80.6101 10.529C80.579 10.5024 80.5415 10.4806 80.5263 10.4806C80.5115 10.4806 80.4737 10.4596 80.4429 10.4341C80.1663 10.207 79.8 9.93763 78.3509 8.89515C78.0844 8.70335 77.8559 8.53338 77.843 8.51714C77.8301 8.50118 77.6728 8.38666 77.493 8.26261C77.3132 8.13857 77.0803 7.9672 76.975 7.88208C76.8694 7.79668 76.7594 7.72695 76.73 7.72695C76.7003 7.72695 76.6762 7.70791 76.6762 7.68495C76.6762 7.66171 76.5818 7.58723 76.4662 7.51947C76.3508 7.4517 76.2562 7.37638 76.2562 7.35174C76.2562 7.3271 76.2265 7.30694 76.1901 7.30694C76.1537 7.30694 76.117 7.28986 76.1086 7.26914C76.0999 7.24814 75.8933 7.08965 75.6497 6.9166C75.4058 6.74356 75.17 6.57219 75.1255 6.53579C75.0813 6.49939 74.9606 6.41371 74.8573 6.34538C74.7539 6.27706 74.6697 6.20314 74.6697 6.18074C74.6697 6.15862 74.647 6.14042 74.6193 6.14042C74.5918 6.14042 74.4462 6.04577 74.2961 5.93041C74.146 5.81477 74.0111 5.7204 73.9965 5.7204C73.9817 5.7204 73.9307 5.68344 73.8831 5.63864C73.7509 5.51348 73.5978 5.39363 73.5703 5.39363C73.5566 5.39363 73.5202 5.37179 73.4891 5.34491C73.4583 5.31803 73.2439 5.15954 73.0128 4.99238C72.7818 4.82521 72.5559 4.65833 72.5105 4.62108C72.4654 4.58384 72.4181 4.5536 72.4055 4.5536C72.3932 4.5536 72.3461 4.52168 72.3011 4.48248C72.1933 4.38868 71.4579 3.8491 71.076 3.58365C70.9091 3.46744 70.7624 3.35936 70.7495 3.3434C70.7271 3.3154 69.9815 2.77078 69.5634 2.47677C69.4536 2.39977 69.303 2.28944 69.2285 2.23148C69.1537 2.17352 68.8931 1.98031 68.6494 1.80251C68.4056 1.62442 68.1807 1.45669 68.1496 1.42953C68.1185 1.40237 68.0821 1.38025 68.0684 1.38025C68.055 1.38025 68.0068 1.34917 67.9615 1.31165C67.7428 1.1288 67.0531 0.633464 67.0173 0.633464C66.9951 0.633464 66.9699 0.616944 66.9615 0.596783C66.938 0.541061 66.6586 0.353455 66.5995 0.353455C66.5443 0.353455 65.4635 1.14532 65.4369 1.20524C65.4285 1.22429 65.4022 1.24025 65.3786 1.24025C65.3551 1.24025 65.2991 1.27245 65.2543 1.31165C65.0729 1.47069 64.2121 2.08028 64.169 2.08028C64.1435 2.08028 64.1225 2.0996 64.1225 2.12312C64.1225 2.14664 64.0438 2.21412 63.9475 2.2732C63.8512 2.33228 63.5157 2.57533 63.2016 2.81362C62.8877 3.05191 62.6094 3.2468 62.5833 3.2468C62.5573 3.2468 62.5357 3.26276 62.5354 3.2818C62.5354 3.30112 62.4565 3.36888 62.3604 3.43244C62.2644 3.496 61.9628 3.71637 61.6904 3.92246C61.4176 4.12827 61.1471 4.32847 61.0892 4.36684C60.9889 4.43348 60.1699 5.0229 59.9224 5.2063C59.8583 5.25391 59.5012 5.51404 59.1291 5.78452C58.757 6.05501 58.4156 6.3087 58.3706 6.34818C58.3258 6.38795 58.2698 6.42043 58.2462 6.42043C58.2227 6.42043 58.1964 6.43611 58.188 6.45543C58.1793 6.47447 57.9833 6.62595 57.7523 6.792C57.5213 6.95777 57.3079 7.11737 57.2783 7.14593C57.2486 7.17477 57.1172 7.26718 56.9865 7.3509C56.856 7.4349 56.749 7.52227 56.749 7.54523C56.749 7.56819 56.7286 7.58695 56.7039 7.58695C56.679 7.58695 56.4486 7.74459 56.1918 7.93696C55.935 8.12961 55.7116 8.28697 55.6954 8.28697C55.6788 8.28697 55.6203 8.32869 55.5654 8.37994C55.4475 8.48914 54.7573 8.99512 54.3104 9.29949C54.1374 9.41765 53.9954 9.53218 53.9954 9.55402C53.9954 9.57586 53.9713 9.59378 53.9419 9.59378C53.9125 9.59378 53.7988 9.66714 53.6891 9.75702C53.5796 9.84691 53.4766 9.92055 53.46 9.92055C53.4438 9.92055 53.3634 9.98327 53.2814 10.0603C53.1993 10.137 53.1053 10.2 53.0722 10.2003C53.0395 10.2003 53.0005 10.2319 52.9857 10.2706C52.9709 10.3089 52.9403 10.3406 52.9177 10.3406C52.895 10.3406 52.8395 10.3705 52.7945 10.4075C52.5139 10.6357 51.7259 11.196 51.6865 11.1954C51.6198 11.1943 50.4449 10.3691 49.982 9.99811C49.9434 9.96731 49.6497 9.7545 49.3288 9.52546C49.0079 9.29613 48.7349 9.09564 48.722 9.07996C48.7091 9.064 48.5937 8.98 48.4652 8.89319C48.337 8.80611 48.0172 8.57146 47.7546 8.37126C47.4919 8.17077 47.2556 8.00696 47.2295 8.00696C47.2032 8.00696 47.1817 7.99128 47.1817 7.97196C47.1814 7.95292 47.1027 7.88516 47.0066 7.8216C46.9106 7.75803 46.6746 7.58807 46.4819 7.44414C46.2895 7.30022 46.0221 7.10561 45.8877 7.01153C45.7533 6.91772 45.6063 6.8102 45.561 6.77296C45.5156 6.73572 45.2896 6.56855 45.0586 6.40167C44.8276 6.2345 44.6131 6.07601 44.582 6.04913C44.5512 6.02225 44.5143 6.00041 44.5006 6.00041C44.4866 6.00041 44.4384 5.96793 44.3936 5.92873C44.2766 5.82625 43.3749 5.16038 43.0986 4.97278C42.97 4.88541 42.844 4.79693 42.8185 4.77593C42.7928 4.75493 42.5721 4.59196 42.3285 4.4136C42.0846 4.23523 41.8631 4.07086 41.8363 4.04846C41.8094 4.02606 41.6727 3.9275 41.5327 3.82978C41.393 3.73205 41.2678 3.63769 41.255 3.61977C41.2421 3.60213 41.1477 3.53213 41.045 3.46408C40.8517 3.3364 40.3402 2.97239 40.1058 2.79598C39.6469 2.45045 39.5279 2.36365 39.3184 2.2214C39.1899 2.13432 39.0745 2.04919 39.0616 2.03239C39.0488 2.01531 38.9228 1.92095 38.7816 1.82267C38.6405 1.7241 38.3359 1.50401 38.1049 1.33293C36.5724 0.199449 36.751 0.290732 36.4716 0.49934Z" fill="#44ACCC" />
            </svg>